<?xml version="1.0" encoding="UTF-8" standalone="no"?>
<svg width="20px" height="20px" viewBox="0 0 20 20" version="1.1" xmlns="http://www.w3.org/2000/svg" xmlns:xlink="http://www.w3.org/1999/xlink">
    <!-- Generator: Sketch 3.8.3 (29802) - http://www.bohemiancoding.com/sketch -->
    <title>20x20/Adult</title>
    <desc>Created with Sketch.</desc>
    <defs>
        <rect id="path-1" x="0" y="9" width="18" height="1" rx="0.5"></rect>
        <mask id="mask-2" maskContentUnits="userSpaceOnUse" maskUnits="objectBoundingBox" x="0" y="0" width="18" height="1" fill="white">
            <use xlink:href="#path-1"></use>
        </mask>
    </defs>
    <g id="20x20" stroke="none" stroke-width="1" fill="none" fill-rule="evenodd">
        <g id="20x20/Adult">
            <g id="Adult">
                <g id="Icon" transform="translate(1.000000, 0.000000)">
                    <path d="M12.5104793,19.5 C10.9361333,19.5 9.8569863,18.7498763 9.39560985,18.242845 C9.19267359,18.0195393 9.11693385,17.9361529 8.99927707,17.9361529 C8.88219846,17.9361529 8.80588055,18.0195393 8.60323338,18.242845 C8.14185693,18.7498763 7.06299944,19.5 5.49096616,19.5 C4.06752153,19.5 3.21443763,18.6491767 2.7493031,17.9354463 C2.2939974,17.2365557 2.07573974,16.4864321 2,16.0394672 C2.2769415,16.4005724 2.69611183,16.9457636 3.37314419,16.9457636 C3.9897582,16.9457636 4.43465692,16.4136457 4.90615127,15.8507879 C5.46119061,15.1868773 6.03530942,14.5 6.97945446,14.5 C8.04067811,14.5 8.51246154,15.2995901 8.71453055,15.6409088 C8.80385719,15.7928415 8.86861178,15.9023744 8.99927729,15.9023744 C9.13052097,15.9023744 9.19556464,15.7924882 9.28518037,15.6402021 C9.48667121,15.2988835 9.95874373,14.5 11.0193892,14.5 C11.9635342,14.5 12.5379421,15.1868773 13.0929815,15.8507879 C13.5644758,16.4136457 14.0093745,16.9457636 14.6259886,16.9457636 C15.3035991,16.9457636 15.7224803,16.3998657 16,16.0387605 C15.9245493,16.4860787 15.7060026,17.2369091 15.2506969,17.9361529 C14.7858515,18.6498834 13.9327676,19.5 12.5104793,19.5 Z" id="Line-226" stroke="#35424C" stroke-linecap="round" stroke-linejoin="round"></path>
                    <use id="Line-225" stroke="#35424C" mask="url(#mask-2)" stroke-width="2" stroke-linecap="square" xlink:href="#path-1"></use>
                    <path d="M2.375,9.02662722 L2.375,2.49911525 C2.375,1.39503438 3.26494418,0.5 4.37300502,0.5 L13.626995,0.5 C14.7304627,0.5 15.625,1.39638274 15.625,2.49911525 L15.625,9.02662722" id="Line-224" stroke="#35424C" stroke-linecap="square"></path>
                    <path d="M3,6.5 L15,6.5" id="Line-223" stroke="#36434D" stroke-linecap="round" stroke-linejoin="round"></path>
                </g>
            </g>
        </g>
    </g>
</svg>