<?xml version="1.0" encoding="UTF-8" standalone="no"?>
<svg width="20px" height="20px" viewBox="0 0 20 20" version="1.1" xmlns="http://www.w3.org/2000/svg" xmlns:xlink="http://www.w3.org/1999/xlink">
    <!-- Generator: Sketch 3.8.3 (29802) - http://www.bohemiancoding.com/sketch -->
    <title>20x20/Boat</title>
    <desc>Created with Sketch.</desc>
    <defs>
        <path d="M3,10.5 L3,6.00325226 C3,4.89688659 3.90195036,4 5.0085302,4 L12.9914698,4 C14.1007504,4 15,4.90379715 15,6.00325226 L15,10.5" id="path-1"></path>
        <mask id="mask-2" maskContentUnits="userSpaceOnUse" maskUnits="objectBoundingBox" x="0" y="0" width="12" height="6.5" fill="white">
            <use xlink:href="#path-1"></use>
        </mask>
        <rect id="path-3" x="7" y="0" width="4" height="5"></rect>
        <mask id="mask-4" maskContentUnits="userSpaceOnUse" maskUnits="objectBoundingBox" x="0" y="0" width="4" height="5" fill="white">
            <use xlink:href="#path-3"></use>
        </mask>
    </defs>
    <g id="20x20" stroke="none" stroke-width="1" fill="none" fill-rule="evenodd">
        <g id="20x20/Boat" stroke="#35424C">
            <g id="Boat">
                <g id="Icon" transform="translate(1.000000, 0.000000)">
                    <path d="M9,8.5 L9,15.5498753" id="Line-141" stroke-linecap="round" stroke-linejoin="round"></path>
                    <path d="M11,11.5 L11,12.5" id="Line-140" stroke-linecap="round" stroke-linejoin="round"></path>
                    <path d="M7,11.5 L7,12.5" id="Line-139" stroke-linecap="round" stroke-linejoin="round"></path>
                    <use id="Line-138" mask="url(#mask-2)" stroke-width="2" stroke-linecap="round" stroke-linejoin="round" xlink:href="#path-1"></use>
                    <use id="Line-137" mask="url(#mask-4)" stroke-width="2" stroke-linecap="square" xlink:href="#path-3"></use>
                    <path d="M0,18 C0,18 0,19.5 1.5,19.5 C3,19.5 3,18 3,18" id="Line-136" stroke-linecap="round" stroke-linejoin="round"></path>
                    <path d="M3,18 C3,18 3,19.5 4.5,19.5 C6,19.5 6,18 6,18" id="Line-135" stroke-linecap="round" stroke-linejoin="round"></path>
                    <path d="M6,18 C6,18 6,19.5 7.5,19.5 C9,19.5 9,18 9,18" id="Line-134" stroke-linecap="round" stroke-linejoin="round"></path>
                    <path d="M9,18 C9,18 9,19.5 10.5,19.5 C12,19.5 12,18 12,18" id="Line-133" stroke-linecap="round" stroke-linejoin="round"></path>
                    <path d="M6,18 C6,18 6,19.5 7.5,19.5 C9,19.5 9,18 9,18" id="Line-132" stroke-linecap="round" stroke-linejoin="round"></path>
                    <path d="M12,18 C12,18 12,19.5 13.5,19.5 C15,19.5 15,18 15,18" id="Line-131" stroke-linecap="round" stroke-linejoin="round"></path>
                    <path d="M15,18 C15,18 15,19.5 16.5,19.5 C18,19.5 18,18 18,18" id="Line-130" stroke-linecap="round" stroke-linejoin="round"></path>
                    <polyline id="Line-129" stroke-linecap="round" stroke-linejoin="round" points="2.5 16.5 0.5 12 9 7.5 17.5 12 15.5 16.5"></polyline>
                </g>
            </g>
        </g>
    </g>
</svg>