<?xml version="1.0" encoding="UTF-8" standalone="no"?>
<svg width="20px" height="20px" viewBox="0 0 20 20" version="1.1" xmlns="http://www.w3.org/2000/svg" xmlns:xlink="http://www.w3.org/1999/xlink">
    <!-- Generator: Sketch 3.8.3 (29802) - http://www.bohemiancoding.com/sketch -->
    <title>20x20/Bus</title>
    <desc>Created with Sketch.</desc>
    <defs>
        <path d="M5,17.5 L5,18.5024408 C5,19.3295199 4.33420277,20 3.5,20 L3.5,20 C2.67157288,20 2,19.3300459 2,18.5024408 L2,17.5 L2,17.5" id="path-1"></path>
        <mask id="mask-2" maskContentUnits="userSpaceOnUse" maskUnits="objectBoundingBox" x="0" y="0" width="3" height="2.5" fill="white">
            <use xlink:href="#path-1"></use>
        </mask>
        <path d="M16,17.5 L16,18.5024408 C16,19.3295199 15.3342028,20 14.5,20 L14.5,20 C13.6715729,20 13,19.3300459 13,18.5024408 L13,17.5 L13,17.5" id="path-3"></path>
        <mask id="mask-4" maskContentUnits="userSpaceOnUse" maskUnits="objectBoundingBox" x="0" y="0" width="3" height="2.5" fill="white">
            <use xlink:href="#path-3"></use>
        </mask>
        <rect id="path-5" x="1" y="0" width="16" height="18"></rect>
        <mask id="mask-6" maskContentUnits="userSpaceOnUse" maskUnits="objectBoundingBox" x="0" y="0" width="16" height="18" fill="white">
            <use xlink:href="#path-5"></use>
        </mask>
    </defs>
    <g id="20x20" stroke="none" stroke-width="1" fill="none" fill-rule="evenodd">
        <g id="20x20/Bus">
            <g id="Bus">
                <g id="Icon" transform="translate(1.000000, 0.000000)">
                    <use id="Line-184" stroke="#35424C" mask="url(#mask-2)" stroke-width="2" stroke-linecap="square" xlink:href="#path-1"></use>
                    <use id="Line-183" stroke="#35424C" mask="url(#mask-4)" stroke-width="2" stroke-linecap="square" xlink:href="#path-3"></use>
                    <use id="Line-182" stroke="#35424C" mask="url(#mask-6)" stroke-width="2" stroke-linecap="square" xlink:href="#path-5"></use>
                    <path d="M1.5,13.5 L16.5,13.5" id="Line-181" stroke="#35424C" stroke-linecap="square"></path>
                    <path d="M1.5,4.5 L16.5,4.5" id="Line-180" stroke="#35424C" stroke-linecap="square"></path>
                    <path d="M7.5,2.5 L10.5,2.5" id="Line-179" stroke="#35424C" stroke-linecap="round" stroke-linejoin="round"></path>
                    <path d="M6.5,13.5 L12.5,10.5" id="Line-178" stroke="#35424C" stroke-linecap="round" stroke-linejoin="round"></path>
                    <path d="M16.5,8.5 L17.5,8.5" id="Line-177" stroke="#36434D" stroke-linecap="round" stroke-linejoin="round"></path>
                    <path d="M0.5,8.5 L1.5,8.5" id="Line-176" stroke="#36434D" stroke-linecap="round" stroke-linejoin="round"></path>
                </g>
            </g>
        </g>
    </g>
</svg>