<?xml version="1.0" encoding="UTF-8" standalone="no"?>
<svg width="20px" height="20px" viewBox="0 0 20 20" version="1.1" xmlns="http://www.w3.org/2000/svg" xmlns:xlink="http://www.w3.org/1999/xlink">
    <!-- Generator: Sketch 3.8.3 (29802) - http://www.bohemiancoding.com/sketch -->
    <title>20x20/Camera</title>
    <desc>Created with Sketch.</desc>
    <defs>
        <rect id="path-1" x="9.5" y="0" width="6" height="3"></rect>
        <mask id="mask-2" maskContentUnits="userSpaceOnUse" maskUnits="objectBoundingBox" x="0" y="0" width="6" height="3" fill="white">
            <use xlink:href="#path-1"></use>
        </mask>
    </defs>
    <g id="20x20" stroke="none" stroke-width="1" fill="none" fill-rule="evenodd">
        <g id="20x20/Camera" stroke="#36434D">
            <g id="Camera">
                <g id="Icon" transform="translate(1.000000, 1.000000)">
                    <path d="M0.5,15.5 L0.5,4.5 C0.5,3.4 1.4,2.5 2.5,2.5 L15.5,2.5 C16.6,2.5 17.5,3.4 17.5,4.5 L17.5,15.5 C17.5,16.6 16.6,17.5 15.5,17.5 L2.5,17.5 C1.4,17.5 0.5,16.6 0.5,15.5 Z" id="Line-67"></path>
                    <path d="M13.125,10.125 C13.125,12.333 11.333,14.125 9.125,14.125 C6.917,14.125 5.125,12.333 5.125,10.125 C5.125,7.917 6.917,6.125 9.125,6.125 C11.333,6.125 13.125,7.917 13.125,10.125 L13.125,10.125 L13.125,10.125 Z" id="Line-66" stroke-linecap="round" stroke-linejoin="round"></path>
                    <use id="Line-65" mask="url(#mask-2)" stroke-width="2" xlink:href="#path-1"></use>
                </g>
            </g>
        </g>
    </g>
</svg>