<?xml version="1.0" encoding="UTF-8" standalone="no"?>
<svg width="20px" height="20px" viewBox="0 0 20 20" version="1.1" xmlns="http://www.w3.org/2000/svg" xmlns:xlink="http://www.w3.org/1999/xlink">
    <!-- Generator: Sketch 3.8.3 (29802) - http://www.bohemiancoding.com/sketch -->
    <title>20x20/Food</title>
    <desc>Created with Sketch.</desc>
    <defs>
        <rect id="path-1" x="0" y="15" width="20" height="3" rx="1.5"></rect>
        <mask id="mask-2" maskContentUnits="userSpaceOnUse" maskUnits="objectBoundingBox" x="0" y="0" width="20" height="3" fill="white">
            <use xlink:href="#path-1"></use>
        </mask>
        <path d="M18,16 C18,11.581722 14.418278,8 10,8 C5.581722,8 2,11.581722 2,16" id="path-3"></path>
        <mask id="mask-4" maskContentUnits="userSpaceOnUse" maskUnits="objectBoundingBox" x="0" y="0" width="16" height="8" fill="white">
            <use xlink:href="#path-3"></use>
        </mask>
        <path d="M10,9 C11.1045695,9 12,9.1045695 12,8 C12,6.8954305 11.1045695,6 10,6 C8.8954305,6 8,6.8954305 8,8 C8,9.1045695 8.8954305,9 10,9 Z" id="path-5"></path>
        <mask id="mask-6" maskContentUnits="userSpaceOnUse" maskUnits="objectBoundingBox" x="0" y="0" width="4" height="3.00265019" fill="white">
            <use xlink:href="#path-5"></use>
        </mask>
    </defs>
    <g id="20x20" stroke="none" stroke-width="1" fill="none" fill-rule="evenodd">
        <g id="20x20/Food">
            <g id="Food">
                <g id="Icon" transform="translate(0.000000, 1.000000)">
                    <use id="Line-202" stroke="#35424C" mask="url(#mask-2)" stroke-width="2" stroke-linecap="square" xlink:href="#path-1"></use>
                    <use id="Line-201" stroke="#35424C" mask="url(#mask-4)" stroke-width="2" stroke-linecap="square" xlink:href="#path-3"></use>
                    <use id="Line-200" stroke="#35424C" mask="url(#mask-6)" stroke-width="2" stroke-linecap="square" xlink:href="#path-5"></use>
                    <path d="M8,4 C8,4 6.89892788,3.28589943 6,4 C5.10107212,4.71410057 4,4 4,4" id="Line-199" stroke="#36434D" stroke-linecap="round" stroke-linejoin="round" transform="translate(6.000000, 4.000000) scale(-1, 1) rotate(-270.000000) translate(-6.000000, -4.000000) "></path>
                    <path d="M12,2.5 C12,2.5 10.8989279,1.78589943 10,2.5 C9.10107212,3.21410057 8,2.5 8,2.5" id="Line-198" stroke="#36434D" stroke-linecap="round" stroke-linejoin="round" transform="translate(10.000000, 2.500000) scale(-1, 1) rotate(-270.000000) translate(-10.000000, -2.500000) "></path>
                    <path d="M16,4 C16,4 14.8989279,3.28589943 14,4 C13.1010721,4.71410057 12,4 12,4" id="Line-197" stroke="#36434D" stroke-linecap="round" stroke-linejoin="round" transform="translate(14.000000, 4.000000) scale(-1, 1) rotate(-270.000000) translate(-14.000000, -4.000000) "></path>
                </g>
            </g>
        </g>
    </g>
</svg>