<?xml version="1.0" encoding="UTF-8" standalone="no"?>
<svg width="20px" height="20px" viewBox="0 0 20 20" version="1.1" xmlns="http://www.w3.org/2000/svg" xmlns:xlink="http://www.w3.org/1999/xlink">
    <!-- Generator: Sketch 3.8.3 (29802) - http://www.bohemiancoding.com/sketch -->
    <title>20x20/Hot Clothing</title>
    <desc>Created with Sketch.</desc>
    <defs>
        <rect id="path-1" x="0" y="15" width="16" height="4" rx="2"></rect>
        <mask id="mask-2" maskContentUnits="userSpaceOnUse" maskUnits="objectBoundingBox" x="0" y="0" width="16" height="4" fill="white">
            <use xlink:href="#path-1"></use>
        </mask>
        <path d="M14,15.5383102 L14,16 L1,16 L1,6 C1,2.6862915 3.5,6.66133815e-16 7.5,0 C11.5,-6.66133815e-16 14,2.6862915 14,6 L14,8.83038874 L15.4978309,7.33255781 C16.4741417,6.35624708 18.0570541,6.35624708 19.0333648,7.33255781 C20.0096756,8.30886854 20.0096756,9.89178098 19.0333648,10.8680917 C18.7769556,11.124501 15.313211,14.3254443 14,15.5383102 Z" id="path-3"></path>
        <mask id="mask-4" maskContentUnits="userSpaceOnUse" maskUnits="objectBoundingBox" x="0" y="0" width="18.7655979" height="16" fill="white">
            <use xlink:href="#path-3"></use>
        </mask>
    </defs>
    <g id="20x20" stroke="none" stroke-width="1" fill="none" fill-rule="evenodd">
        <g id="20x20/Hot-Clothing" stroke="#35424C">
            <g id="Hot-Clothing">
                <g id="Icon" transform="translate(0.000000, 1.000000)">
                    <use id="Line-115" mask="url(#mask-2)" stroke-width="2" stroke-linecap="square" xlink:href="#path-1"></use>
                    <use id="Line-114" mask="url(#mask-4)" stroke-width="2" stroke-linecap="square" xlink:href="#path-3"></use>
                    <path d="M4.5,10.5 L4.5,12.5" id="Line-113" stroke-linecap="round" stroke-linejoin="round"></path>
                    <path d="M7.5,10.5 L7.5,12.5" id="Line-112" stroke-linecap="round" stroke-linejoin="round"></path>
                </g>
            </g>
        </g>
    </g>
</svg>