<?xml version="1.0" encoding="UTF-8" standalone="no"?>
<svg width="20px" height="20px" viewBox="0 0 20 20" version="1.1" xmlns="http://www.w3.org/2000/svg" xmlns:xlink="http://www.w3.org/1999/xlink">
    <!-- Generator: Sketch 3.8.3 (29802) - http://www.bohemiancoding.com/sketch -->
    <title>20x20/Meal</title>
    <desc>Created with Sketch.</desc>
    <defs>
        <rect id="path-1" x="0" y="11" width="3" height="8" rx="1.5"></rect>
        <mask id="mask-2" maskContentUnits="userSpaceOnUse" maskUnits="objectBoundingBox" x="0" y="0" width="3" height="8" fill="white">
            <use xlink:href="#path-1"></use>
        </mask>
        <rect id="path-3" x="1" y="11" width="3" height="8" rx="1.5"></rect>
        <mask id="mask-4" maskContentUnits="userSpaceOnUse" maskUnits="objectBoundingBox" x="0" y="0" width="3" height="8" fill="white">
            <use xlink:href="#path-3"></use>
        </mask>
    </defs>
    <g id="20x20" stroke="none" stroke-width="1" fill="none" fill-rule="evenodd">
        <g id="20x20/Meal" stroke="#35424C">
            <g id="Meal">
                <g id="Icon" transform="translate(3.000000, 1.000000)">
                    <g id="knife-+-fork" transform="translate(0.500000, 0.000000)">
                        <g id="knife" transform="translate(8.000000, 0.000000)">
                            <use id="Line-217" mask="url(#mask-2)" stroke-width="2" stroke-linecap="square" xlink:href="#path-1"></use>
                            <path d="M1.5,11.5 L1.5,0 C1.5,0 4,0 4,8.5 L1.5,8.5" id="Line-216" stroke-linecap="round" stroke-linejoin="round"></path>
                        </g>
                        <g id="fork">
                            <use id="Line-215" mask="url(#mask-4)" stroke-width="2" stroke-linecap="square" xlink:href="#path-3"></use>
                            <path d="M2.5,11.5 L2.5,0" id="Line-214" stroke-linecap="round" stroke-linejoin="round"></path>
                            <path d="M0.5,2.84217094e-14 L0.5,4.99408095 C0.5,6.10191945 1.38772964,7 2.5,7 L2.5,7 C3.6045695,7 4.5,6.11344516 4.5,4.99408095 L4.5,0" id="Line-213" stroke-linecap="round" stroke-linejoin="round"></path>
                        </g>
                    </g>
                </g>
            </g>
        </g>
    </g>
</svg>