<?xml version="1.0" encoding="UTF-8" standalone="no"?>
<svg width="20px" height="20px" viewBox="0 0 20 20" version="1.1" xmlns="http://www.w3.org/2000/svg" xmlns:xlink="http://www.w3.org/1999/xlink">
    <!-- Generator: Sketch 3.8.3 (29802) - http://www.bohemiancoding.com/sketch -->
    <title>20x20/Metro</title>
    <desc>Created with Sketch.</desc>
    <defs>
        <path d="M0.875371233,1.99406028 C0.9442018,0.892771196 1.89706013,0 3.00585866,0 L12.9941413,0 C14.1019465,0 15.0559071,0.894513756 15.1246288,1.99406028 L15.8753712,14.0059397 C15.9442018,15.1072288 15.1054862,16 14.0059397,16 L1.99406028,16 C0.892771196,16 0.0559071098,15.1054862 0.124628767,14.0059397 L0.875371233,1.99406028 Z" id="path-1"></path>
        <mask id="mask-2" maskContentUnits="userSpaceOnUse" maskUnits="objectBoundingBox" x="0" y="0" width="15.7586407" height="16" fill="white">
            <use xlink:href="#path-1"></use>
        </mask>
    </defs>
    <g id="20x20" stroke="none" stroke-width="1" fill="none" fill-rule="evenodd">
        <g id="20x20/Metro" stroke="#35424C">
            <g id="Metro">
                <g id="Icon" transform="translate(2.000000, 1.000000)">
                    <use id="Line-166" mask="url(#mask-2)" stroke-width="2" stroke-linecap="square" xlink:href="#path-1"></use>
                    <path d="M1.5,12.5 L14.5,12.5" id="Line-165" stroke-linecap="square"></path>
                    <path d="M3,17.5 L13,17.5" id="Line-164" stroke-linecap="round" stroke-linejoin="round"></path>
                    <path d="M12.5,15.5 L13.5,18.5" id="Line-163" stroke-linecap="round" stroke-linejoin="round"></path>
                    <path d="M2.5,15.5 L3.5,18.5" id="Line-162" stroke-linecap="round" stroke-linejoin="round" transform="translate(3.000000, 17.000000) scale(-1, 1) translate(-3.000000, -17.000000) "></path>
                    <path d="M1.5,4.5 L14.5,4.5" id="Line-161" stroke-linecap="square"></path>
                    <path d="M4.5,2.5 L11.5,2.5" id="Line-160" stroke-linecap="round" stroke-linejoin="round"></path>
                    <path d="M5.5,12.5 L11.5,9.5" id="Line-159" stroke-linecap="round" stroke-linejoin="round"></path>
                </g>
            </g>
        </g>
    </g>
</svg>