<?xml version="1.0" encoding="UTF-8" standalone="no"?>
<svg width="20px" height="20px" viewBox="0 0 20 20" version="1.1" xmlns="http://www.w3.org/2000/svg" xmlns:xlink="http://www.w3.org/1999/xlink">
    <!-- Generator: Sketch 3.8.3 (29802) - http://www.bohemiancoding.com/sketch -->
    <title>20x20/Music</title>
    <desc>Created with Sketch.</desc>
    <defs>
        <path d="M10.4564485,3.87154718 L1.75659416,9.16711072 C0.819808811,9.73732789 0.496466316,10.9846485 1.04586389,11.9460943 L0.915253326,11.7175258 C1.46948422,12.6874298 2.74000337,13.1263862 3.76383279,12.7168545 L8,11.0223876 L8,17 L11,17 L11,9.82238758 L13.009975,9.01839759 C13.4611255,9.18486559 13.9488614,9.27577569 14.4578305,9.27577569 C16.7678176,9.27577569 18.6404322,7.40316116 18.6404322,5.09317406 C18.6404322,2.78318696 16.7678176,0.910572425 14.4578305,0.910572425 C12.5728363,0.910572425 10.9790831,2.15752327 10.4564485,3.87154718 Z" id="path-1"></path>
        <mask id="mask-2" maskContentUnits="userSpaceOnUse" maskUnits="objectBoundingBox" x="0" y="0" width="17.8626686" height="16.0894276" fill="white">
            <use xlink:href="#path-1"></use>
        </mask>
        <rect id="path-3" x="5" y="16" width="9" height="3" rx="1.5"></rect>
        <mask id="mask-4" maskContentUnits="userSpaceOnUse" maskUnits="objectBoundingBox" x="0" y="0" width="9" height="3" fill="white">
            <use xlink:href="#path-3"></use>
        </mask>
        <path d="M3.76383279,12.7168545 C2.74000337,13.1263862 1.46948422,12.6874298 0.915253326,11.7175258 L1.04586389,11.9460943 C0.496466316,10.9846485 0.819808811,9.73732789 1.75659416,9.16711072 L10.7399624,3.69897351 L13.5283635,8.81104218 L3.76383279,12.7168545 Z" id="path-5"></path>
        <mask id="mask-6" maskContentUnits="userSpaceOnUse" maskUnits="objectBoundingBox" x="0" y="0" width="12.803999" height="9.21090996" fill="white">
            <use xlink:href="#path-5"></use>
        </mask>
    </defs>
    <g id="20x20" stroke="none" stroke-width="1" fill="none" fill-rule="evenodd" stroke-linecap="square">
        <g id="20x20/Music" stroke="#35424C" stroke-width="2">
            <g id="Music">
                <g id="Icon">
                    <use id="Line-196" mask="url(#mask-2)" xlink:href="#path-1"></use>
                    <use id="Line-195" mask="url(#mask-4)" xlink:href="#path-3"></use>
                    <use id="Line-194" mask="url(#mask-6)" xlink:href="#path-5"></use>
                </g>
            </g>
        </g>
    </g>
</svg>