<?xml version="1.0" encoding="UTF-8" standalone="no"?>
<svg width="20px" height="20px" viewBox="0 0 20 20" version="1.1" xmlns="http://www.w3.org/2000/svg" xmlns:xlink="http://www.w3.org/1999/xlink">
    <!-- Generator: Sketch 3.8.3 (29802) - http://www.bohemiancoding.com/sketch -->
    <title>20x20/Notifications</title>
    <desc>Created with Sketch.</desc>
    <defs></defs>
    <g id="20x20" stroke="none" stroke-width="1" fill="none" fill-rule="evenodd" stroke-linecap="round" stroke-linejoin="round">
        <g id="20x20/Notifications" stroke="#36434D">
            <g id="Notifications">
                <g id="Icon" transform="translate(2.000000, 1.000000)">
                    <path d="M14.0923077,14.5384615 C14.9327692,14.5384615 15.6153846,13.8572308 15.6153846,13.0292308 C15.6153846,12.1236923 14.6004615,12.0973846 14.0923077,10.548 C14.0923077,10.548 13.6492308,7.75107692 13.5827692,6.15461538 C13.4636923,3.13753846 11.0835385,0.699230769 8,0.699230769 C4.91646154,0.699230769 2.53630769,3.14307692 2.41584615,6.156 C2.35215385,7.75246154 1.90769231,10.5369231 1.90769231,10.5369231 C1.39815385,12.1070769 0.384615385,12.1195385 0.384615385,13.1123077 C0.384615385,13.9333846 1.06723077,14.5384615 1.90769231,14.5384615 L14.0923077,14.5384615 L14.0923077,14.5384615 Z M5.23076923,14.5384615 L5.23076923,14.5384615 C5.23076923,16.0670769 6.47138462,17.3076923 8,17.3076923 C9.52861538,17.3076923 10.7692308,16.0670769 10.7692308,14.5384615 L5.23076923,14.5384615 Z" id="Line-37"></path>
                </g>
            </g>
        </g>
    </g>
</svg>