<?xml version="1.0" encoding="UTF-8" standalone="no"?>
<svg width="20px" height="20px" viewBox="0 0 20 20" version="1.1" xmlns="http://www.w3.org/2000/svg" xmlns:xlink="http://www.w3.org/1999/xlink">
    <!-- Generator: Sketch 3.8.3 (29802) - http://www.bohemiancoding.com/sketch -->
    <title>20x20/Photo Copy</title>
    <desc>Created with Sketch.</desc>
    <defs></defs>
    <g id="20x20" stroke="none" stroke-width="1" fill="none" fill-rule="evenodd">
        <g id="20x20/Photo-Copy" stroke="#36434D">
            <g id="Photo">
                <g id="Icon" transform="translate(1.000000, 1.000000)">
                    <path d="M0.5,15.5 L0.5,2.5 C0.5,1.4 1.4,0.5 2.5,0.5 L15.5,0.5 C16.6,0.5 17.5,1.4 17.5,2.5 L17.5,15.5 C17.5,16.6 16.6,17.5 15.5,17.5 L2.5,17.5 C1.4,17.5 0.5,16.6 0.5,15.5 Z" id="Line-64"></path>
                    <path d="M17.1960573,15.2244125 L12.657,10.672 L10.157,13.172 L6.657,9.672 L0.717,15.611 M14.25,5.5 C14.25,6.328 13.578,7 12.75,7 C11.922,7 11.25,6.328 11.25,5.5 C11.25,4.672 11.922,4 12.75,4 C13.578,4 14.25,4.672 14.25,5.5 L14.25,5.5 L14.25,5.5 Z" id="Line-63" stroke-linecap="round" stroke-linejoin="round"></path>
                </g>
            </g>
        </g>
    </g>
</svg>