<?xml version="1.0" encoding="UTF-8" standalone="no"?>
<svg width="20px" height="20px" viewBox="0 0 20 20" version="1.1" xmlns="http://www.w3.org/2000/svg" xmlns:xlink="http://www.w3.org/1999/xlink">
    <!-- Generator: Sketch 3.8.3 (29802) - http://www.bohemiancoding.com/sketch -->
    <title>20x20/Preview Copy</title>
    <desc>Created with Sketch.</desc>
    <defs></defs>
    <g id="20x20" stroke="none" stroke-width="1" fill="none" fill-rule="evenodd" stroke-linecap="round" stroke-linejoin="round">
        <g id="20x20/Preview-Copy" stroke="#36434D">
            <g id="Preview">
                <g id="Icon" transform="translate(0.000000, 3.000000)">
                    <path d="M19.4736842,7 C19.4736842,8.49153846 15.2326316,13.4615385 10,13.4615385 C4.76736842,13.4615385 0.526315789,8.49153846 0.526315789,7 C0.526315789,5.50846154 4.76736842,0.538461538 10,0.538461538 C15.2326316,0.538461538 19.4736842,5.50846154 19.4736842,7 L19.4736842,7 Z M13.1578947,7 C13.1578947,8.78446154 11.7442105,10.2307692 10,10.2307692 C8.25578947,10.2307692 6.84210526,8.78446154 6.84210526,7 C6.84210526,5.21553846 8.25578947,3.76923077 10,3.76923077 C11.7442105,3.76923077 13.1578947,5.21553846 13.1578947,7 L13.1578947,7 Z" id="Line-68"></path>
                </g>
            </g>
        </g>
    </g>
</svg>