<?xml version="1.0" encoding="UTF-8" standalone="no"?>
<svg width="20px" height="20px" viewBox="0 0 20 20" version="1.1" xmlns="http://www.w3.org/2000/svg" xmlns:xlink="http://www.w3.org/1999/xlink">
    <!-- Generator: Sketch 3.8.3 (29802) - http://www.bohemiancoding.com/sketch -->
    <title>20x20/Running</title>
    <desc>Created with Sketch.</desc>
    <defs></defs>
    <g id="20x20" stroke="none" stroke-width="1" fill="none" fill-rule="evenodd">
        <g id="20x20/Running" stroke="#35424C">
            <g id="Running">
                <g id="Icon" transform="translate(0.000000, 1.000000)">
                    <path d="M18.4999997,17.4975592 C18.4999995,18.051192 18.0533007,18.5 17.5040574,18.5 L11,18.5 L1.15682207,7.25065374 C0.794069287,6.83607913 0.809324661,6.17439515 1.19082955,5.77281105 C1.19082955,5.77281105 1.34228321,5.61338614 1.42045299,5.53110216 C1.74696868,5.18740144 2.49999995,4.5 2.49999995,4.5 L12,16 L18.5000002,16 L18.4999997,17.4975592 Z" id="Line-122" stroke-linecap="square"></path>
                    <path d="M18.5,15.5000002 C18.5,14.0000009 17.940218,12.5 16,12.5000002 C16,12.5 14.54,12.5 14.54,12.5 L12.5,5.00000022 C12.5,5.00000022 10.5,7.00000022 8.49999996,5.00000022 C6.49999996,3.00000022 6.99999999,0.499999994 6.99999999,0.499999994 L2.49999999,4.49999979" id="Line-121" stroke-linecap="round" stroke-linejoin="round"></path>
                    <path d="M12.5,7.5 L8,10" id="Line-120" stroke-linecap="square"></path>
                    <path d="M13,10 L9.5,12" id="Line-119" stroke-linecap="square"></path>
                    <path d="M1,14 L3,14" id="Line-118" stroke-linecap="round" stroke-linejoin="round"></path>
                    <path d="M1,16 L5,16" id="Line-117" stroke-linecap="round" stroke-linejoin="round"></path>
                    <path d="M1,18 L7,18" id="Line-116" stroke-linecap="round" stroke-linejoin="round"></path>
                </g>
            </g>
        </g>
    </g>
</svg>