<?xml version="1.0" encoding="UTF-8" standalone="no"?>
<svg width="20px" height="20px" viewBox="0 0 20 20" version="1.1" xmlns="http://www.w3.org/2000/svg" xmlns:xlink="http://www.w3.org/1999/xlink">
    <!-- Generator: Sketch 3.8.3 (29802) - http://www.bohemiancoding.com/sketch -->
    <title>20x20/Star</title>
    <desc>Created with Sketch.</desc>
    <defs></defs>
    <g id="20x20" stroke="none" stroke-width="1" fill="none" fill-rule="evenodd" stroke-linecap="round" stroke-linejoin="round">
        <g id="20x20/Star" stroke="#35424C">
            <g id="Star">
                <g id="Icon" transform="translate(1.000000, 1.000000)">
                    <path d="M14.0054176,12.7295155 L14.5943996,17.3886069 C14.6126254,17.5238616 14.586246,17.5943667 14.5684998,17.6149906 C14.5330073,17.65432 14.4289283,17.6217054 14.3344417,17.5771001 L10.0441775,15.5818541 C9.75927904,15.4494771 9.38900694,15.3760943 9.00098863,15.3760943 C8.61344995,15.3760943 8.24365748,15.4494771 7.95971825,15.5818541 L3.66753553,17.5771001 C3.516453,17.6485645 3.45745887,17.642809 3.43443677,17.6149906 C3.41621094,17.5948463 3.39031108,17.5243412 3.40901653,17.387168 L3.99703933,12.7266377 C4.07330003,12.0805809 3.78840155,11.2110181 3.34810389,10.7467397 L0.112059998,7.31645126 C0.00318465163,7.19990203 -0.00305050038,7.1269988 0.000786516238,7.11404889 C0.00558278702,7.10061935 0.0535454948,7.04546231 0.207985414,7.01524584 L4.8627662,6.12889614 C5.49395544,6.01378579 6.23641816,5.47804303 6.55345165,4.90968568 L9.00482565,0.5 L11.4504441,4.91064493 C11.766998,5.47804303 12.5094607,6.01378579 13.1377722,6.12793689 L17.7872771,7.01524584 C17.945554,7.04546231 17.9959148,7.1015786 17.9992722,7.11404889 C18.0031093,7.12555993 17.9954352,7.19894277 17.8846414,7.31597163 L14.6557919,10.7457804 C14.2078202,11.2172533 13.9224421,12.0896938 14.0054176,12.7295155 Z" id="Line-36"></path>
                </g>
            </g>
        </g>
    </g>
</svg>