<?xml version="1.0" encoding="UTF-8" standalone="no"?>
<svg width="20px" height="20px" viewBox="0 0 20 20" version="1.1" xmlns="http://www.w3.org/2000/svg" xmlns:xlink="http://www.w3.org/1999/xlink">
    <!-- Generator: Sketch 3.8.3 (29802) - http://www.bohemiancoding.com/sketch -->
    <title>20x20/Sun</title>
    <desc>Created with Sketch.</desc>
    <defs>
        <circle id="path-1" cx="10" cy="10" r="5.5"></circle>
        <mask id="mask-2" maskContentUnits="userSpaceOnUse" maskUnits="objectBoundingBox" x="0" y="0" width="11" height="11" fill="white">
            <use xlink:href="#path-1"></use>
        </mask>
    </defs>
    <g id="20x20" stroke="none" stroke-width="1" fill="none" fill-rule="evenodd">
        <g id="20x20/Sun" stroke="#36434D">
            <g id="Sun">
                <g id="Icon">
                    <use id="Line-100" mask="url(#mask-2)" stroke-width="2" xlink:href="#path-1"></use>
                    <path d="M10,0.5 L10,2.5" id="Line-99" stroke-linecap="round" stroke-linejoin="round"></path>
                    <path d="M10,17.5 L10,19.5" id="Line-98" stroke-linecap="round" stroke-linejoin="round"></path>
                    <path d="M18.5,9 L18.5,11" id="Line-97" stroke-linecap="round" stroke-linejoin="round" transform="translate(18.500000, 10.000000) rotate(-270.000000) translate(-18.500000, -10.000000) "></path>
                    <path d="M1.5,9 L1.5,11" id="Line-96" stroke-linecap="round" stroke-linejoin="round" transform="translate(1.500000, 10.000000) rotate(-270.000000) translate(-1.500000, -10.000000) "></path>
                    <path d="M16.0104076,15.0104076 L16.0104076,17.0104076" id="Line-95" stroke-linecap="round" stroke-linejoin="round" transform="translate(16.010408, 16.010408) rotate(-225.000000) translate(-16.010408, -16.010408) "></path>
                    <path d="M3.98959236,2.98959236 L3.98959236,4.98959236" id="Line-94" stroke-linecap="round" stroke-linejoin="round" transform="translate(3.989592, 3.989592) rotate(-225.000000) translate(-3.989592, -3.989592) "></path>
                    <path d="M3.98959236,15.0104076 L3.98959236,17.0104076" id="Line-93" stroke-linecap="round" stroke-linejoin="round" transform="translate(3.989592, 16.010408) rotate(-135.000000) translate(-3.989592, -16.010408) "></path>
                    <path d="M16.0104076,2.98959236 L16.0104076,4.98959236" id="Line-92" stroke-linecap="round" stroke-linejoin="round" transform="translate(16.010408, 3.989592) rotate(-135.000000) translate(-16.010408, -3.989592) "></path>
                </g>
            </g>
        </g>
    </g>
</svg>