<?xml version="1.0" encoding="UTF-8" standalone="no"?>
<svg width="20px" height="20px" viewBox="0 0 20 20" version="1.1" xmlns="http://www.w3.org/2000/svg" xmlns:xlink="http://www.w3.org/1999/xlink">
    <!-- Generator: Sketch 3.8.3 (29802) - http://www.bohemiancoding.com/sketch -->
    <title>20x20/Ticket</title>
    <desc>Created with Sketch.</desc>
    <defs>
        <path d="M0,12.5 L0,12.9931545 C0,13.5500512 0.444045377,14 0.99180311,14 L19.0081969,14 C19.5446944,14 20,13.5492199 20,12.9931545 L20,1.00684547 C20,0.449948758 19.5559546,0 19.0081969,0 L0.99180311,0 C0.455305576,0 0,0.450780073 0,1.00684547 L0,1.5 C0.55228475,1.5 1,1.94771525 1,2.5 C1,3.05228475 0.55228475,3.5 0,3.5 L0,6 C0.55228475,6 1,6.44771525 1,7 C1,7.55228475 0.55228475,8 0,8 L0,10.5 C0.55228475,10.5 1,10.9477153 1,11.5 C1,12.0522847 0.55228475,12.5 0,12.5 Z" id="path-1"></path>
        <mask id="mask-2" maskContentUnits="userSpaceOnUse" maskUnits="objectBoundingBox" x="0" y="0" width="20" height="14" fill="white">
            <use xlink:href="#path-1"></use>
        </mask>
    </defs>
    <g id="20x20" stroke="none" stroke-width="1" fill="none" fill-rule="evenodd" stroke-linecap="round" stroke-linejoin="round">
        <g id="20x20/Ticket" stroke="#35424C">
            <g id="Ticket">
                <g id="Icon" transform="translate(0.000000, 3.000000)">
                    <use id="Line-222" mask="url(#mask-2)" stroke-width="2" xlink:href="#path-1"></use>
                    <path d="M14.5,0.5 L14.5,13.5" id="Line-221" stroke-dasharray="1,2"></path>
                    <path d="M4.5,4.5 L9.5,4.5" id="Line-220"></path>
                    <path d="M4.5,9.5 L10.5,9.5" id="Line-219"></path>
                    <path d="M4.5,6.5 L7.5,6.5" id="Line-218"></path>
                </g>
            </g>
        </g>
    </g>
</svg>