<?xml version="1.0" encoding="UTF-8" standalone="no"?>
<svg width="20px" height="20px" viewBox="0 0 20 20" version="1.1" xmlns="http://www.w3.org/2000/svg" xmlns:xlink="http://www.w3.org/1999/xlink">
    <!-- Generator: Sketch 3.8.3 (29802) - http://www.bohemiancoding.com/sketch -->
    <title>20x20/Train</title>
    <desc>Created with Sketch.</desc>
    <defs>
        <path d="M0.867207721,3.99188419 C0.940546872,2.89179693 1.90195036,2 3.0085302,2 L10.9914698,2 C12.1007504,2 13.0595598,2.89339733 13.1327923,3.99188419 L13.8672077,15.0081158 C13.9405469,16.1082031 13.1029399,17 11.9941413,17 L2.00585866,17 C0.898053512,17 0.0595598221,16.1066027 0.132792279,15.0081158 L0.867207721,3.99188419 Z" id="path-1"></path>
        <mask id="mask-2" maskContentUnits="userSpaceOnUse" maskUnits="objectBoundingBox" x="0" y="0" width="13.7433406" height="15" fill="white">
            <use xlink:href="#path-1"></use>
        </mask>
        <circle id="path-3" cx="4" cy="13.5" r="1.5"></circle>
        <mask id="mask-4" maskContentUnits="userSpaceOnUse" maskUnits="objectBoundingBox" x="0" y="0" width="3" height="3" fill="white">
            <use xlink:href="#path-3"></use>
        </mask>
        <circle id="path-5" cx="10" cy="13.5" r="1.5"></circle>
        <mask id="mask-6" maskContentUnits="userSpaceOnUse" maskUnits="objectBoundingBox" x="0" y="0" width="3" height="3" fill="white">
            <use xlink:href="#path-5"></use>
        </mask>
    </defs>
    <g id="20x20" stroke="none" stroke-width="1" fill="none" fill-rule="evenodd">
        <g id="20x20/Train" stroke="#35424C">
            <g id="Train">
                <g id="Icon" transform="translate(3.000000, 0.000000)">
                    <path d="M5.5,1 L8,1" id="Line-175" stroke-linecap="round" stroke-linejoin="round"></path>
                    <use id="Line-174" mask="url(#mask-2)" stroke-width="2" stroke-linecap="square" xlink:href="#path-1"></use>
                    <path d="M1.5,10.5 L12.5,10.5" id="Line-173" stroke-linecap="square"></path>
                    <use id="Line-172" mask="url(#mask-4)" stroke-width="2" stroke-linecap="square" xlink:href="#path-3"></use>
                    <path d="M2,18.5 L12,18.5" id="Line-171" stroke-linecap="round" stroke-linejoin="round"></path>
                    <path d="M11.5,16.5 L12.5,19.5" id="Line-170" stroke-linecap="round" stroke-linejoin="round"></path>
                    <path d="M1.5,16.5 L2.5,19.5" id="Line-169" stroke-linecap="round" stroke-linejoin="round" transform="translate(2.000000, 18.000000) scale(-1, 1) translate(-2.000000, -18.000000) "></path>
                    <path d="M4.5,10.5 L10.5,7.5" id="Line-168" stroke-linecap="round" stroke-linejoin="round"></path>
                    <use id="Line-167" mask="url(#mask-6)" stroke-width="2" stroke-linecap="square" xlink:href="#path-5"></use>
                </g>
            </g>
        </g>
    </g>
</svg>