<?xml version="1.0" encoding="UTF-8"?>
<svg width="414px" height="811px" viewBox="0 0 414 811" version="1.1" xmlns="http://www.w3.org/2000/svg" xmlns:xlink="http://www.w3.org/1999/xlink">
    <!-- Generator: Sketch 52.5 (67469) - http://www.bohemiancoding.com/sketch -->
    <title>Group 2</title>
    <desc>Created with Sketch.</desc>
    <defs>
        <linearGradient x1="50%" y1="100%" x2="50%" y2="5.01661854%" id="linearGradient-1">
            <stop stop-color="#87F0EA" offset="0%"></stop>
            <stop stop-color="#37BEB7" offset="100%"></stop>
        </linearGradient>
        <linearGradient x1="50%" y1="0%" x2="50%" y2="100%" id="linearGradient-2">
            <stop stop-color="#77E1F6" offset="0%"></stop>
            <stop stop-color="#42BFEA" offset="100%"></stop>
        </linearGradient>
        <linearGradient x1="35.7123712%" y1="-17.6558672%" x2="46.3373359%" y2="65.2157871%" id="linearGradient-3">
            <stop stop-color="#9DFFF9" offset="0%"></stop>
            <stop stop-color="#37BEB7" offset="100%"></stop>
        </linearGradient>
    </defs>
    <g id="Page-1" stroke="none" stroke-width="1" fill="none" fill-rule="evenodd">
        <g id="Login">
            <g id="Group-2" transform="translate(-387.000000, -579.000000)">
                <rect id="Rectangle-4" fill="url(#linearGradient-1)" x="387" y="578" width="414" height="812"></rect>
                <path d="M684.91701,389.797533 L1011.17648,588.616482 C1027.58416,598.615139 1037.97519,616.090559 1038.92378,635.281314 L1056.75087,995.93708 C1057.85121,1018.19771 1046.09845,1039.11979 1026.51544,1049.76178 L728.029564,1211.96769 C709.861421,1221.84079 687.811008,1221.29482 670.153747,1210.53467 L343.894274,1011.71573 C327.4866,1001.71707 317.09557,984.241649 316.146978,965.050893 L298.319886,604.395128 C297.219551,582.134496 308.972302,561.212414 328.555322,550.570431 L627.041194,388.364518 C645.209337,378.49142 667.25975,379.037392 684.91701,389.797533 Z" id="Polygon-Copy" fill="url(#linearGradient-2)" transform="translate(677.535379, 800.166104) rotate(-45.000000) translate(-677.535379, -800.166104) "></path>
                <path d="M773.05822,207.495063 L1238.38987,491.063072 C1254.79754,501.061729 1265.18857,518.537149 1266.13717,537.727905 L1291.68176,1054.51468 C1292.78209,1076.77532 1281.02934,1097.6974 1261.44632,1108.33938 L831.605779,1341.92725 C813.437636,1351.80035 791.387223,1351.25437 773.729962,1340.49423 L308.398314,1056.92622 C291.990639,1046.92757 281.599609,1029.45215 280.651017,1010.26139 L255.106423,493.474611 C254.006088,471.21398 265.758839,450.291897 285.341858,439.649915 L715.182403,206.062048 C733.350546,196.18895 755.400959,196.734922 773.05822,207.495063 Z" id="Polygon-Copy" fill="url(#linearGradient-3)" transform="translate(773.394091, 773.994648) rotate(-45.000000) translate(-773.394091, -773.994648) "></path>
                <path d="M657.875098,272.496289 L825.430927,374.602975 C841.838602,384.601632 852.229632,402.077053 853.178224,421.267808 L862.198408,603.753062 C863.298743,626.013693 851.545992,646.935775 831.962973,657.577758 L683.373837,738.325421 C665.205694,748.198519 643.155281,747.652546 625.49802,736.892405 L457.942191,634.785719 C441.534517,624.787062 431.143487,607.311641 430.194894,588.120886 L421.174711,405.635633 C420.074375,383.375001 431.827127,362.452919 451.410146,351.810936 L599.999282,271.063273 C618.167425,261.190176 640.217838,261.736148 657.875098,272.496289 Z" id="Polygon-Copy-2" fill-opacity="0.237884964" fill="#FFFFFF" opacity="0.279743304" transform="translate(641.686559, 504.694347) rotate(-45.000000) translate(-641.686559, -504.694347) "></path>
                <path d="M425.552614,699.252253 L608.577429,810.785571 C624.985103,820.784228 635.376133,838.259648 636.324726,857.450404 L646.203327,1057.3021 C647.303662,1079.56273 635.550911,1100.48481 615.967892,1111.12679 L452.768187,1199.81426 C434.600044,1209.68736 412.549631,1209.14139 394.89237,1198.38125 L211.867555,1086.84793 C195.459881,1076.84927 185.068851,1059.37385 184.120258,1040.1831 L174.241658,840.331406 C173.141322,818.070775 184.894073,797.148692 204.477093,786.506709 L367.676797,697.819238 C385.84494,687.94614 407.895353,688.492112 425.552614,699.252253 Z" id="Polygon-Copy-3" fill-opacity="0.237884964" fill="#FFFFFF" transform="translate(410.222492, 948.816751) rotate(-45.000000) translate(-410.222492, -948.816751) "></path>
            </g>
        </g>
    </g>
</svg>